<?xml version="1.0" encoding="UTF-8"?>
<svg width="901px" height="47px" viewBox="0 0 901 47" version="1.1" xmlns="http://www.w3.org/2000/svg" xmlns:xlink="http://www.w3.org/1999/xlink">
    <!-- Generator: Sketch 47.1 (45422) - http://www.bohemiancoding.com/sketch -->
    <title>Rectangle 3 Copy</title>
    <desc>Created with Sketch.</desc>
    <defs>
        <linearGradient x1="50%" y1="100%" x2="50%" y2="0%" id="linearGradient-1">
            <stop stop-color="#B21818" offset="0%"></stop>
            <stop stop-color="#710909" offset="100%"></stop>
        </linearGradient>
    </defs>
    <g id="Page-1" stroke="none" stroke-width="1" fill="none" fill-rule="evenodd">
        <g id="Desktop-HD" transform="translate(-270.000000, -317.000000)" fill="url(#linearGradient-1)">
            <path d="M650,317 L785,317 C913.418104,317 1041.83621,317 1170.25431,317 C1170.25431,317 1170.2543,320.333333 1170.25427,327 C920.184946,326.899165 793.433522,326.899165 790,327 C786.566478,327.100835 784.899811,328.767502 785,332 L785,356 L785,356 C785,360.418278 781.418278,364 777,364 L658,364 L658,364 C653.581722,364 650,360.418278 650,356 L650,332 C650,328.666667 648.412174,327 645.236522,327 C642.060871,327 516.98203,327 270,327 L270,317 L650,317 Z" id="Rectangle-3-Copy"></path>
        </g>
    </g>
</svg>